M48
INCH
T34C0.035
T33C0.081
T32C0.030
T31C0.050
%
T32
X0008000Y0004000
X0008000Y0001000
X0009000Y0004000
X0009000Y0001000
X0019000Y0004000
X0019000Y0001000
X0020000Y0004000
X0020000Y0001000
X0030000Y0004000
X0030000Y0001000
X0031000Y0004000
X0031000Y0001000
X0041000Y0004000
X0041000Y0001000
T34
X0005000Y0003000
X0005000Y0002000
X0045000Y0004000
X0045000Y0003000
T31
X0008000Y0005000
X0010000Y0002000
X0016000Y0005000
X0017000Y0005000
X0018000Y0002000
X0021000Y0002000
X0025000Y0005000
X0026000Y0005000
X0029000Y0002000
X0032000Y0002000
X0034000Y0005000
X0040000Y0002000
T33
X0003000Y0005000
X0003000Y0001000
X0047000Y0005000
X0047000Y0001000
M30
