G04 start of page 8 for group -4079 idx -4079 *
G04 Title: (unknown), topsilk *
G04 Creator: pcb 1.99z *
G04 CreationDate: Sat 05 Oct 2013 03:04:34 AM GMT UTC *
G04 For: commonadmin *
G04 Format: Gerber/RS-274X *
G04 PCB-Dimensions: 600000 500000 *
G04 PCB-Coordinate-Origin: lower left *
%MOIN*%
%FSLAX25Y25*%
%LNTOPSILK*%
%ADD45C,0.0100*%
G54D45*X170000Y50000D02*X190000D01*
X230000D02*X250000D01*
X190000Y56600D02*X230000D01*
Y43400D01*
X190000D01*
Y56600D01*
X200000Y17500D02*Y10000D01*
Y40000D02*Y32500D01*
X197500D02*Y17500D01*
Y32500D02*X202500D01*
Y17500D01*
X197500D02*X202500D01*
X190000D02*Y10000D01*
Y40000D02*Y32500D01*
X187500D02*Y17500D01*
Y32500D02*X192500D01*
Y17500D01*
X187500D02*X192500D01*
X320000Y20000D02*X340000D01*
X380000D02*X400000D01*
X340000Y26600D02*X380000D01*
Y13400D01*
X340000D01*
Y26600D01*
X260000Y50000D02*X280000D01*
X320000D02*X340000D01*
X280000Y56600D02*X320000D01*
Y43400D01*
X280000D01*
Y56600D01*
X310000Y17500D02*Y10000D01*
Y40000D02*Y32500D01*
X307500D02*Y17500D01*
Y32500D02*X312500D01*
Y17500D01*
X307500D02*X312500D01*
X300000D02*Y10000D01*
Y40000D02*Y32500D01*
X297500D02*Y17500D01*
Y32500D02*X302500D01*
Y17500D01*
X297500D02*X302500D01*
X210000Y20000D02*X230000D01*
X270000D02*X290000D01*
X230000Y26600D02*X270000D01*
Y13400D01*
X230000D01*
Y26600D01*
X80000Y50000D02*X100000D01*
X140000D02*X160000D01*
X100000Y56600D02*X140000D01*
Y43400D01*
X100000D01*
Y56600D01*
X80000Y17500D02*Y10000D01*
Y40000D02*Y32500D01*
X77500D02*Y17500D01*
Y32500D02*X82500D01*
Y17500D01*
X77500D02*X82500D01*
X90000D02*Y10000D01*
Y40000D02*Y32500D01*
X87500D02*Y17500D01*
Y32500D02*X92500D01*
Y17500D01*
X87500D02*X92500D01*
X100000Y20000D02*X120000D01*
X160000D02*X180000D01*
X120000Y26600D02*X160000D01*
Y13400D01*
X120000D01*
Y26600D01*
X410000Y17500D02*Y10000D01*
Y40000D02*Y32500D01*
X407500D02*Y17500D01*
Y32500D02*X412500D01*
Y17500D01*
X407500D02*X412500D01*
X444000Y59000D02*X499000D01*
Y1000D01*
X444000D02*X499000D01*
X444000Y59000D02*Y1000D01*
X1000D02*X56000D01*
X1000Y59000D02*Y1000D01*
Y59000D02*X56000D01*
Y1000D01*
X320000Y25600D02*Y21600D01*
X322000D01*
X324700Y25600D02*X325200Y25100D01*
X323700Y25600D02*X324700D01*
X323200Y25100D02*X323700Y25600D01*
X323200Y25100D02*Y22100D01*
X323700Y21600D01*
X324700Y23800D02*X325200Y23300D01*
X323200Y23800D02*X324700D01*
X323700Y21600D02*X324700D01*
X325200Y22100D01*
Y23300D02*Y22100D01*
X260000Y55600D02*Y51600D01*
X262000D01*
X263200Y55600D02*X265200D01*
X263200D02*Y53600D01*
X263700Y54100D01*
X264700D01*
X265200Y53600D01*
Y52100D01*
X264700Y51600D02*X265200Y52100D01*
X263700Y51600D02*X264700D01*
X263200Y52100D02*X263700Y51600D01*
X312500Y12000D02*Y10700D01*
X311800Y10000D02*X312500Y10700D01*
X309200Y10000D02*X311800D01*
X309200D02*X308500Y10700D01*
Y12000D02*Y10700D01*
Y14700D02*X309000Y15200D01*
X308500Y14700D02*Y13700D01*
X309000Y13200D02*X308500Y13700D01*
X309000Y13200D02*X312000D01*
X312500Y13700D01*
X310300Y14700D02*X310800Y15200D01*
X310300Y14700D02*Y13200D01*
X312500Y14700D02*Y13700D01*
Y14700D02*X312000Y15200D01*
X310800D02*X312000D01*
X302500Y12000D02*Y10700D01*
X301800Y10000D02*X302500Y10700D01*
X299200Y10000D02*X301800D01*
X299200D02*X298500Y10700D01*
Y12000D02*Y10700D01*
Y15200D02*Y13200D01*
X300500D01*
X300000Y13700D01*
Y14700D02*Y13700D01*
Y14700D02*X300500Y15200D01*
X302000D01*
X302500Y14700D02*X302000Y15200D01*
X302500Y14700D02*Y13700D01*
X302000Y13200D02*X302500Y13700D01*
X170000Y55600D02*Y51600D01*
X172000D01*
X173200Y55100D02*X173700Y55600D01*
X174700D01*
X175200Y55100D01*
X174700Y51600D02*X175200Y52100D01*
X173700Y51600D02*X174700D01*
X173200Y52100D02*X173700Y51600D01*
Y53800D02*X174700D01*
X175200Y55100D02*Y54300D01*
Y53300D02*Y52100D01*
Y53300D02*X174700Y53800D01*
X175200Y54300D02*X174700Y53800D01*
X80000Y55600D02*Y51600D01*
X82000D01*
X83200Y54800D02*X84000Y55600D01*
Y51600D01*
X83200D02*X84700D01*
X82500Y12000D02*Y10700D01*
X81800Y10000D02*X82500Y10700D01*
X79200Y10000D02*X81800D01*
X79200D02*X78500Y10700D01*
Y12000D02*Y10700D01*
X79300Y13200D02*X78500Y14000D01*
X82500D01*
Y14700D02*Y13200D01*
X92500Y12000D02*Y10700D01*
X91800Y10000D02*X92500Y10700D01*
X89200Y10000D02*X91800D01*
X89200D02*X88500Y10700D01*
Y12000D02*Y10700D01*
X89000Y13200D02*X88500Y13700D01*
Y15200D02*Y13700D01*
Y15200D02*X89000Y15700D01*
X90000D01*
X92500Y13200D02*X90000Y15700D01*
X92500D02*Y13200D01*
X100000Y25600D02*Y21600D01*
X102000D01*
X103200Y25100D02*X103700Y25600D01*
X105200D01*
X105700Y25100D01*
Y24100D01*
X103200Y21600D02*X105700Y24100D01*
X103200Y21600D02*X105700D01*
X55000Y32000D02*Y30700D01*
X54300Y30000D02*X55000Y30700D01*
X51700Y30000D02*X54300D01*
X51700D02*X51000Y30700D01*
Y32000D02*Y30700D01*
X51500Y33200D02*X54500D01*
X51500D02*X51000Y33700D01*
Y34700D02*Y33700D01*
Y34700D02*X51500Y35200D01*
X54500D01*
X55000Y34700D02*X54500Y35200D01*
X55000Y34700D02*Y33700D01*
X54500Y33200D02*X55000Y33700D01*
X51000Y36400D02*X55000D01*
X51000D02*X55000Y38900D01*
X51000D02*X55000D01*
X51000Y40100D02*X55000D01*
X51000D02*X55000Y42600D01*
X51000D02*X55000D01*
X51800Y43800D02*X51000Y44600D01*
X55000D01*
Y45300D02*Y43800D01*
X202500Y12000D02*Y10700D01*
X201800Y10000D02*X202500Y10700D01*
X199200Y10000D02*X201800D01*
X199200D02*X198500Y10700D01*
Y12000D02*Y10700D01*
X201000Y13200D02*X198500Y15200D01*
X201000Y15700D02*Y13200D01*
X198500Y15200D02*X202500D01*
X192500Y12000D02*Y10700D01*
X191800Y10000D02*X192500Y10700D01*
X189200Y10000D02*X191800D01*
X189200D02*X188500Y10700D01*
Y12000D02*Y10700D01*
X189000Y13200D02*X188500Y13700D01*
Y14700D02*Y13700D01*
Y14700D02*X189000Y15200D01*
X192500Y14700D02*X192000Y15200D01*
X192500Y14700D02*Y13700D01*
X192000Y13200D02*X192500Y13700D01*
X190300Y14700D02*Y13700D01*
X189000Y15200D02*X189800D01*
X190800D02*X192000D01*
X190800D02*X190300Y14700D01*
X189800Y15200D02*X190300Y14700D01*
X210000Y25600D02*Y21600D01*
X212000D01*
X213200Y23100D02*X215200Y25600D01*
X213200Y23100D02*X215700D01*
X215200Y25600D02*Y21600D01*
X419500Y36500D02*Y35200D01*
X418800Y34500D02*X419500Y35200D01*
X416200Y34500D02*X418800D01*
X416200D02*X415500Y35200D01*
Y36500D02*Y35200D01*
X419500Y38200D02*X415500Y40200D01*
Y37700D01*
X445000Y29300D02*Y28000D01*
X445700Y30000D02*X445000Y29300D01*
X445700Y30000D02*X448300D01*
X449000Y29300D01*
Y28000D01*
X445500Y26800D02*X448500D01*
X449000Y26300D01*
Y25300D01*
X448500Y24800D01*
X445500D02*X448500D01*
X445000Y25300D02*X445500Y24800D01*
X445000Y26300D02*Y25300D01*
X445500Y26800D02*X445000Y26300D01*
Y23600D02*X449000D01*
X445000Y21100D01*
X449000D01*
X445000Y19900D02*X449000D01*
X445000Y17400D01*
X449000D01*
X448500Y16200D02*X449000Y15700D01*
Y14200D01*
X448500Y13700D01*
X447500D02*X448500D01*
X445000Y16200D02*X447500Y13700D01*
X445000Y16200D02*Y13700D01*
M02*
