G04 start of page 2 for group 0 idx 0 *
G04 Title: (unknown), top *
G04 Creator: pcb 1.99z *
G04 CreationDate: Sat 05 Oct 2013 03:04:34 AM GMT UTC *
G04 For: commonadmin *
G04 Format: Gerber/RS-274X *
G04 PCB-Dimensions: 600000 500000 *
G04 PCB-Coordinate-Origin: lower left *
%MOIN*%
%FSLAX25Y25*%
%LNTOP*%
%ADD20C,0.0350*%
%ADD19C,0.0810*%
%ADD18C,0.0300*%
%ADD17C,0.0500*%
%ADD16C,0.0600*%
%ADD15C,0.1000*%
%ADD14C,0.0550*%
%ADD13C,0.0800*%
%ADD12C,0.0750*%
%ADD11C,0.0001*%
G54D11*G36*
X500000Y60000D02*Y0D01*
X424624D01*
Y35250D01*
X428032D01*
X436510Y26773D01*
X436631Y26631D01*
X437199Y26145D01*
X437199Y26145D01*
X437595Y25903D01*
X437837Y25755D01*
X438528Y25469D01*
X438668Y25435D01*
X439255Y25294D01*
X440000Y25235D01*
X440186Y25250D01*
X450000D01*
X450745Y25294D01*
X451472Y25469D01*
X451573Y25510D01*
X453235Y25514D01*
X453465Y25569D01*
X453683Y25659D01*
X453884Y25783D01*
X454064Y25936D01*
X454217Y26116D01*
X454341Y26317D01*
X454431Y26535D01*
X454486Y26765D01*
X454500Y27000D01*
X454497Y28444D01*
X454531Y28528D01*
X454706Y29255D01*
X454765Y30000D01*
X454706Y30745D01*
X454531Y31472D01*
X454490Y31573D01*
X454486Y33235D01*
X454431Y33465D01*
X454341Y33683D01*
X454217Y33884D01*
X454064Y34064D01*
X453884Y34217D01*
X453683Y34341D01*
X453465Y34431D01*
X453235Y34486D01*
X453000Y34500D01*
X451556Y34497D01*
X451472Y34531D01*
X450745Y34706D01*
X450000Y34750D01*
X441968D01*
X433490Y43227D01*
X433369Y43369D01*
X432801Y43855D01*
X432163Y44245D01*
X431472Y44531D01*
X430745Y44706D01*
X430745Y44706D01*
X430000Y44765D01*
X429814Y44750D01*
X424624D01*
Y60000D01*
X500000D01*
G37*
G36*
X424624Y0D02*X325368D01*
Y15382D01*
X325431Y15535D01*
X325486Y15765D01*
X325500Y16000D01*
X325486Y24235D01*
X325431Y24465D01*
X325368Y24618D01*
Y45250D01*
X337225D01*
X337495Y45084D01*
X338295Y44753D01*
X339137Y44551D01*
X340000Y44483D01*
X340863Y44551D01*
X341705Y44753D01*
X342505Y45084D01*
X343243Y45537D01*
X343901Y46099D01*
X344463Y46757D01*
X344916Y47495D01*
X345247Y48295D01*
X345449Y49137D01*
X345500Y50000D01*
X345449Y50863D01*
X345247Y51705D01*
X344916Y52505D01*
X344463Y53243D01*
X343901Y53901D01*
X343243Y54463D01*
X342505Y54916D01*
X341705Y55247D01*
X340863Y55449D01*
X340000Y55517D01*
X339137Y55449D01*
X338295Y55247D01*
X337495Y54916D01*
X337225Y54750D01*
X325368D01*
Y60000D01*
X424624D01*
Y44750D01*
X410186D01*
X410000Y44765D01*
X409255Y44706D01*
X408528Y44531D01*
X407837Y44245D01*
X407199Y43855D01*
X407199Y43854D01*
X406631Y43369D01*
X406510Y43227D01*
X396773Y33490D01*
X396631Y33369D01*
X396145Y32801D01*
X395755Y32163D01*
X395469Y31472D01*
X395294Y30745D01*
X395294Y30745D01*
X395235Y30000D01*
X395250Y29814D01*
Y22775D01*
X395084Y22505D01*
X394753Y21705D01*
X394551Y20863D01*
X394483Y20000D01*
X394551Y19137D01*
X394753Y18295D01*
X395084Y17495D01*
X395537Y16757D01*
X396099Y16099D01*
X396757Y15537D01*
X397495Y15084D01*
X398295Y14753D01*
X399137Y14551D01*
X400000Y14483D01*
X400863Y14551D01*
X401705Y14753D01*
X402505Y15084D01*
X403243Y15537D01*
X403901Y16099D01*
X404463Y16757D01*
X404916Y17495D01*
X405247Y18295D01*
X405449Y19137D01*
X405500Y20000D01*
X405449Y20863D01*
X405247Y21705D01*
X404916Y22505D01*
X404750Y22775D01*
Y28032D01*
X411968Y35250D01*
X424624D01*
Y0D01*
G37*
G36*
X325368Y24618D02*X325341Y24683D01*
X325217Y24884D01*
X325064Y25064D01*
X324884Y25217D01*
X324683Y25341D01*
X324465Y25431D01*
X324235Y25486D01*
X324000Y25500D01*
X321222Y25495D01*
X314750Y31968D01*
Y38032D01*
X321968Y45250D01*
X325368D01*
Y24618D01*
G37*
G36*
Y0D02*X250000D01*
Y44483D01*
X250863Y44551D01*
X251705Y44753D01*
X252505Y45084D01*
X253243Y45537D01*
X253901Y46099D01*
X254463Y46757D01*
X254512Y46837D01*
X254514Y45765D01*
X254569Y45535D01*
X254659Y45317D01*
X254783Y45116D01*
X254936Y44936D01*
X255116Y44783D01*
X255317Y44659D01*
X255535Y44569D01*
X255765Y44514D01*
X256000Y44500D01*
X264235Y44514D01*
X264465Y44569D01*
X264683Y44659D01*
X264884Y44783D01*
X265064Y44936D01*
X265217Y45116D01*
X265300Y45250D01*
X288032D01*
X295250Y38032D01*
Y31968D01*
X288603Y25321D01*
X288295Y25247D01*
X287495Y24916D01*
X286757Y24463D01*
X286099Y23901D01*
X285537Y23243D01*
X285084Y22505D01*
X284753Y21705D01*
X284551Y20863D01*
X284483Y20000D01*
X284551Y19137D01*
X284753Y18295D01*
X285084Y17495D01*
X285537Y16757D01*
X286099Y16099D01*
X286757Y15537D01*
X287495Y15084D01*
X288295Y14753D01*
X289137Y14551D01*
X290000Y14483D01*
X290863Y14551D01*
X291705Y14753D01*
X292505Y15084D01*
X293243Y15537D01*
X293901Y16099D01*
X294463Y16757D01*
X294916Y17495D01*
X295247Y18295D01*
X295321Y18603D01*
X303227Y26510D01*
X303369Y26631D01*
X303854Y27199D01*
X303855Y27199D01*
X304245Y27837D01*
X304531Y28528D01*
X304706Y29255D01*
X304765Y30000D01*
X304750Y30186D01*
Y39814D01*
X304765Y40000D01*
X304706Y40745D01*
X304706Y40745D01*
X304531Y41472D01*
X304245Y42163D01*
X303855Y42801D01*
X303369Y43369D01*
X303227Y43490D01*
X293490Y53227D01*
X293369Y53369D01*
X292801Y53855D01*
X292801Y53855D01*
X292163Y54245D01*
X291472Y54531D01*
X290745Y54706D01*
X290000Y54765D01*
X289814Y54750D01*
X265300D01*
X265217Y54884D01*
X265064Y55064D01*
X264884Y55217D01*
X264683Y55341D01*
X264465Y55431D01*
X264235Y55486D01*
X264000Y55500D01*
X255765Y55486D01*
X255535Y55431D01*
X255317Y55341D01*
X255116Y55217D01*
X254936Y55064D01*
X254783Y54884D01*
X254659Y54683D01*
X254569Y54465D01*
X254514Y54235D01*
X254500Y54000D01*
X254501Y53181D01*
X254463Y53243D01*
X253901Y53901D01*
X253243Y54463D01*
X252505Y54916D01*
X251705Y55247D01*
X250863Y55449D01*
X250000Y55517D01*
Y60000D01*
X325368D01*
Y54750D01*
X320186D01*
X320000Y54765D01*
X319255Y54706D01*
X318528Y54531D01*
X317837Y54245D01*
X317199Y53855D01*
X317199Y53854D01*
X316631Y53369D01*
X316510Y53227D01*
X306773Y43490D01*
X306631Y43369D01*
X306145Y42801D01*
X305755Y42163D01*
X305469Y41472D01*
X305294Y40745D01*
X305294Y40745D01*
X305235Y40000D01*
X305250Y39814D01*
Y30186D01*
X305235Y30000D01*
X305294Y29255D01*
X305435Y28668D01*
X305469Y28528D01*
X305755Y27837D01*
X305903Y27595D01*
X306145Y27199D01*
X306145Y27199D01*
X306631Y26631D01*
X306773Y26510D01*
X314509Y18774D01*
X314514Y15765D01*
X314569Y15535D01*
X314659Y15317D01*
X314783Y15116D01*
X314936Y14936D01*
X315116Y14783D01*
X315317Y14659D01*
X315535Y14569D01*
X315765Y14514D01*
X316000Y14500D01*
X324235Y14514D01*
X324465Y14569D01*
X324683Y14659D01*
X324884Y14783D01*
X325064Y14936D01*
X325217Y15116D01*
X325341Y15317D01*
X325368Y15382D01*
Y0D01*
G37*
G36*
X250000D02*X140000D01*
Y45250D01*
X157225D01*
X157495Y45084D01*
X158295Y44753D01*
X159137Y44551D01*
X160000Y44483D01*
X160863Y44551D01*
X161705Y44753D01*
X162505Y45084D01*
X163243Y45537D01*
X163901Y46099D01*
X164463Y46757D01*
X164512Y46837D01*
X164514Y45765D01*
X164569Y45535D01*
X164659Y45317D01*
X164783Y45116D01*
X164936Y44936D01*
X165116Y44783D01*
X165317Y44659D01*
X165535Y44569D01*
X165765Y44514D01*
X166000Y44500D01*
X174235Y44514D01*
X174465Y44569D01*
X174683Y44659D01*
X174884Y44783D01*
X175064Y44936D01*
X175217Y45116D01*
X175300Y45250D01*
X178032D01*
X185250Y38032D01*
Y31968D01*
X178603Y25321D01*
X178295Y25247D01*
X177495Y24916D01*
X176757Y24463D01*
X176099Y23901D01*
X175537Y23243D01*
X175084Y22505D01*
X174753Y21705D01*
X174551Y20863D01*
X174483Y20000D01*
X174551Y19137D01*
X174753Y18295D01*
X175084Y17495D01*
X175537Y16757D01*
X176099Y16099D01*
X176757Y15537D01*
X177495Y15084D01*
X178295Y14753D01*
X179137Y14551D01*
X180000Y14483D01*
X180863Y14551D01*
X181705Y14753D01*
X182505Y15084D01*
X183243Y15537D01*
X183901Y16099D01*
X184463Y16757D01*
X184916Y17495D01*
X185247Y18295D01*
X185321Y18603D01*
X193227Y26510D01*
X193369Y26631D01*
X193854Y27199D01*
X193855Y27199D01*
X194245Y27837D01*
X194531Y28528D01*
X194706Y29255D01*
X194765Y30000D01*
X194750Y30186D01*
Y39814D01*
X194765Y40000D01*
X194706Y40745D01*
X194706Y40745D01*
X194531Y41472D01*
X194245Y42163D01*
X193855Y42801D01*
X193369Y43369D01*
X193227Y43490D01*
X183490Y53227D01*
X183369Y53369D01*
X182801Y53855D01*
X182163Y54245D01*
X181472Y54531D01*
X180745Y54706D01*
X180745Y54706D01*
X180000Y54765D01*
X179814Y54750D01*
X175300D01*
X175217Y54884D01*
X175064Y55064D01*
X174884Y55217D01*
X174683Y55341D01*
X174465Y55431D01*
X174235Y55486D01*
X174000Y55500D01*
X165765Y55486D01*
X165535Y55431D01*
X165317Y55341D01*
X165116Y55217D01*
X164936Y55064D01*
X164783Y54884D01*
X164659Y54683D01*
X164569Y54465D01*
X164514Y54235D01*
X164500Y54000D01*
X164501Y53181D01*
X164463Y53243D01*
X163901Y53901D01*
X163243Y54463D01*
X162505Y54916D01*
X161705Y55247D01*
X160863Y55449D01*
X160000Y55517D01*
X159137Y55449D01*
X158295Y55247D01*
X157495Y54916D01*
X157225Y54750D01*
X140000D01*
Y60000D01*
X250000D01*
Y55517D01*
X250000D01*
X249137Y55449D01*
X248295Y55247D01*
X247495Y54916D01*
X247225Y54750D01*
X210186D01*
X210000Y54765D01*
X209255Y54706D01*
X208528Y54531D01*
X207837Y54245D01*
X207199Y53855D01*
X207199Y53854D01*
X206631Y53369D01*
X206510Y53227D01*
X196773Y43490D01*
X196631Y43369D01*
X196145Y42801D01*
X195755Y42163D01*
X195469Y41472D01*
X195294Y40745D01*
X195294Y40745D01*
X195235Y40000D01*
X195250Y39814D01*
Y30186D01*
X195235Y30000D01*
X195294Y29255D01*
X195435Y28668D01*
X195469Y28528D01*
X195755Y27837D01*
X195903Y27595D01*
X196145Y27199D01*
X196145Y27199D01*
X196631Y26631D01*
X196773Y26510D01*
X204509Y18774D01*
X204514Y15765D01*
X204569Y15535D01*
X204659Y15317D01*
X204783Y15116D01*
X204936Y14936D01*
X205116Y14783D01*
X205317Y14659D01*
X205535Y14569D01*
X205765Y14514D01*
X206000Y14500D01*
X214235Y14514D01*
X214465Y14569D01*
X214683Y14659D01*
X214884Y14783D01*
X215064Y14936D01*
X215217Y15116D01*
X215341Y15317D01*
X215431Y15535D01*
X215486Y15765D01*
X215500Y16000D01*
X215486Y24235D01*
X215431Y24465D01*
X215341Y24683D01*
X215217Y24884D01*
X215064Y25064D01*
X214884Y25217D01*
X214683Y25341D01*
X214465Y25431D01*
X214235Y25486D01*
X214000Y25500D01*
X211222Y25495D01*
X204750Y31968D01*
Y38032D01*
X211968Y45250D01*
X247225D01*
X247495Y45084D01*
X248295Y44753D01*
X249137Y44551D01*
X250000Y44483D01*
X250000D01*
Y0D01*
G37*
G36*
X140000D02*X65368D01*
Y25250D01*
X69814D01*
X70000Y25235D01*
X70745Y25294D01*
X70745Y25294D01*
X71472Y25469D01*
X72163Y25755D01*
X72801Y26145D01*
X73369Y26631D01*
X73490Y26773D01*
X83227Y36510D01*
X83369Y36631D01*
X83854Y37199D01*
X83855Y37199D01*
X84245Y37837D01*
X84531Y38528D01*
X84706Y39255D01*
X84765Y40000D01*
X84750Y40186D01*
Y44700D01*
X84884Y44783D01*
X85064Y44936D01*
X85217Y45116D01*
X85341Y45317D01*
X85431Y45535D01*
X85486Y45765D01*
X85500Y46000D01*
X85486Y54235D01*
X85431Y54465D01*
X85341Y54683D01*
X85217Y54884D01*
X85064Y55064D01*
X84884Y55217D01*
X84683Y55341D01*
X84465Y55431D01*
X84235Y55486D01*
X84000Y55500D01*
X75765Y55486D01*
X75535Y55431D01*
X75317Y55341D01*
X75116Y55217D01*
X74936Y55064D01*
X74783Y54884D01*
X74659Y54683D01*
X74569Y54465D01*
X74514Y54235D01*
X74500Y54000D01*
X74514Y45765D01*
X74569Y45535D01*
X74659Y45317D01*
X74783Y45116D01*
X74936Y44936D01*
X75116Y44783D01*
X75250Y44700D01*
Y41968D01*
X68032Y34750D01*
X65368D01*
Y60000D01*
X140000D01*
Y54750D01*
X100186D01*
X100000Y54765D01*
X99255Y54706D01*
X98528Y54531D01*
X97837Y54245D01*
X97199Y53855D01*
X97199Y53854D01*
X96631Y53369D01*
X96510Y53227D01*
X86773Y43490D01*
X86631Y43369D01*
X86145Y42801D01*
X85755Y42163D01*
X85469Y41472D01*
X85294Y40745D01*
X85294Y40745D01*
X85235Y40000D01*
X85250Y39814D01*
Y30186D01*
X85235Y30000D01*
X85294Y29255D01*
X85435Y28668D01*
X85469Y28528D01*
X85755Y27837D01*
X85903Y27595D01*
X86145Y27199D01*
X86145Y27199D01*
X86631Y26631D01*
X86773Y26510D01*
X94509Y18774D01*
X94514Y15765D01*
X94569Y15535D01*
X94659Y15317D01*
X94783Y15116D01*
X94936Y14936D01*
X95116Y14783D01*
X95317Y14659D01*
X95535Y14569D01*
X95765Y14514D01*
X96000Y14500D01*
X104235Y14514D01*
X104465Y14569D01*
X104683Y14659D01*
X104884Y14783D01*
X105064Y14936D01*
X105217Y15116D01*
X105341Y15317D01*
X105431Y15535D01*
X105486Y15765D01*
X105500Y16000D01*
X105486Y24235D01*
X105431Y24465D01*
X105341Y24683D01*
X105217Y24884D01*
X105064Y25064D01*
X104884Y25217D01*
X104683Y25341D01*
X104465Y25431D01*
X104235Y25486D01*
X104000Y25500D01*
X101222Y25495D01*
X94750Y31968D01*
Y38032D01*
X101968Y45250D01*
X140000D01*
Y0D01*
G37*
G36*
X65368D02*X0D01*
Y60000D01*
X65368D01*
Y34750D01*
X50000D01*
X49255Y34706D01*
X48528Y34531D01*
X48427Y34490D01*
X46765Y34486D01*
X46535Y34431D01*
X46317Y34341D01*
X46116Y34217D01*
X45936Y34064D01*
X45783Y33884D01*
X45659Y33683D01*
X45569Y33465D01*
X45514Y33235D01*
X45500Y33000D01*
X45503Y31556D01*
X45469Y31472D01*
X45294Y30745D01*
X45235Y30000D01*
X45294Y29255D01*
X45469Y28528D01*
X45510Y28427D01*
X45514Y26765D01*
X45569Y26535D01*
X45659Y26317D01*
X45783Y26116D01*
X45936Y25936D01*
X46116Y25783D01*
X46317Y25659D01*
X46535Y25569D01*
X46765Y25514D01*
X47000Y25500D01*
X48444Y25503D01*
X48528Y25469D01*
X49255Y25294D01*
X50000Y25250D01*
X65368D01*
Y0D01*
G37*
G54D12*X70000Y30000D02*X80000Y40000D01*
Y50000D01*
X60000Y10000D02*X50000Y20000D01*
Y30000D02*X70000D01*
X180000Y50000D02*X190000Y40000D01*
Y30000D01*
X180000Y20000D01*
X210000Y50000D02*X200000Y40000D01*
Y30000D01*
X210000Y20000D01*
X160000Y50000D02*X100000D01*
X90000Y40000D01*
Y30000D01*
X100000Y20000D01*
X340000Y50000D02*X320000D01*
X310000Y40000D01*
Y30000D01*
X170000Y50000D02*X180000D01*
X250000D02*X210000D01*
X260000D02*X290000D01*
X300000Y40000D01*
Y30000D01*
X290000Y20000D01*
X310000Y30000D02*X320000Y20000D01*
X450000Y10000D02*X60000D01*
X450000Y30000D02*X440000D01*
X400000D02*Y20000D01*
X450000Y40000D02*X460000D01*
X440000Y30000D02*X430000Y40000D01*
X410000D01*
X400000Y30000D01*
X460000Y40000D02*Y20000D01*
X450000Y10000D01*
G54D11*G36*
X256000Y54000D02*Y46000D01*
X264000D01*
Y54000D01*
X256000D01*
G37*
G54D13*X250000Y50000D03*
G54D14*X310000Y40000D03*
X300000D03*
G54D11*G36*
X316000Y24000D02*Y16000D01*
X324000D01*
Y24000D01*
X316000D01*
G37*
G54D13*X400000Y20000D03*
X340000Y50000D03*
G54D11*G36*
X307250Y12750D02*Y7250D01*
X312750D01*
Y12750D01*
X307250D01*
G37*
G36*
X297250D02*Y7250D01*
X302750D01*
Y12750D01*
X297250D01*
G37*
G54D13*X290000Y20000D03*
G54D11*G36*
X407250Y12750D02*Y7250D01*
X412750D01*
Y12750D01*
X407250D01*
G37*
G54D15*X470000Y10000D03*
G54D14*X410000Y40000D03*
G54D11*G36*
X447000Y33000D02*Y27000D01*
X453000D01*
Y33000D01*
X447000D01*
G37*
G54D16*X450000Y40000D03*
G54D15*X470000Y50000D03*
G54D11*G36*
X166000Y54000D02*Y46000D01*
X174000D01*
Y54000D01*
X166000D01*
G37*
G36*
X76000D02*Y46000D01*
X84000D01*
Y54000D01*
X76000D01*
G37*
G54D13*X160000Y50000D03*
G54D15*X30000D03*
G54D11*G36*
X77250Y12750D02*Y7250D01*
X82750D01*
Y12750D01*
X77250D01*
G37*
G54D15*X30000Y10000D03*
G54D14*X80000Y40000D03*
G54D11*G36*
X47000Y33000D02*Y27000D01*
X53000D01*
Y33000D01*
X47000D01*
G37*
G54D16*X50000Y20000D03*
G54D11*G36*
X87250Y12750D02*Y7250D01*
X92750D01*
Y12750D01*
X87250D01*
G37*
G36*
X96000Y24000D02*Y16000D01*
X104000D01*
Y24000D01*
X96000D01*
G37*
G54D14*X90000Y40000D03*
G54D11*G36*
X197250Y12750D02*Y7250D01*
X202750D01*
Y12750D01*
X197250D01*
G37*
G54D14*X200000Y40000D03*
G54D11*G36*
X187250Y12750D02*Y7250D01*
X192750D01*
Y12750D01*
X187250D01*
G37*
G54D14*X190000Y40000D03*
G54D11*G36*
X206000Y24000D02*Y16000D01*
X214000D01*
Y24000D01*
X206000D01*
G37*
G54D13*X180000Y20000D03*
G54D17*G54D18*G54D17*G54D18*G54D17*G54D18*G54D19*G54D18*G54D20*G54D19*G54D17*G54D19*G54D18*G54D19*G54D18*G54D20*G54D18*G54D17*G54D18*G54D17*M02*
